<svg width="128" height="127" viewBox="0 0 128 127" fill="none" xmlns="http://www.w3.org/2000/svg">
<path d="M22.8581 39.5434L28.0148 37.4161L43.577 46.435L40.061 48.093L32.0577 39.9569L22.8581 39.5434Z" fill="#DACFBD"/>
<path d="M45.3936 32.1367L37.0529 34.9039L52.1895 43.6089L60.6674 40.421L45.3936 32.1367Z" fill="#DACFBD"/>
<path d="M64.4223 25.8674L55.4889 28.9313L69.4636 37.7778L77.3489 34.8866L64.4223 25.8674Z" fill="#DACFBD"/>
<path d="M81.5592 20.4571L74.2665 23.0517L87.2079 31.4555L94.5005 28.8609L81.5592 20.4571Z" fill="#DACFBD"/>
<path d="M61.0628 50.6472L51.0797 50.6367L43.2321 59.494L42.0767 63.0366L50.7314 63.1433L61.0628 50.6472Z" fill="#DACFBD"/>
<path d="M79.9587 50.4444L69.5294 50.352L60.7265 62.5886L70.5632 62.9777L79.9587 50.4444Z" fill="#DACFBD"/>
<path d="M97.4761 50.4487L88.2446 50.2244L79.7546 62.5717L89.5787 62.4993L97.4761 50.4487Z" fill="#DACFBD"/>
<path d="M22.8581 39.5434L28.0148 37.4161L43.577 46.435L40.061 48.093L32.0577 39.9569L22.8581 39.5434Z" stroke="#DACFBD"/>
<path d="M45.3936 32.1367L37.0529 34.9039L52.1895 43.6089L60.6674 40.421L45.3936 32.1367Z" stroke="#DACFBD"/>
<path d="M64.4223 25.8674L55.4889 28.9313L69.4636 37.7778L77.3489 34.8866L64.4223 25.8674Z" stroke="#DACFBD"/>
<path d="M81.5592 20.4571L74.2665 23.0517L87.2079 31.4555L94.5005 28.8609L81.5592 20.4571Z" stroke="#DACFBD"/>
<path d="M61.0628 50.6472L51.0797 50.6367L43.2321 59.494L42.0767 63.0366L50.7314 63.1433L61.0628 50.6472Z" stroke="#DACFBD"/>
<path d="M79.9587 50.4444L69.5294 50.352L60.7265 62.5886L70.5632 62.9777L79.9587 50.4444Z" stroke="#DACFBD"/>
<path d="M97.4761 50.4487L88.2446 50.2244L79.7546 62.5717L89.5787 62.4993L97.4761 50.4487Z" stroke="#DACFBD"/>
<path d="M19.122 63.55L19.0927 44.0014C19.5373 41.8889 19.3196 41.1938 20.3492 40.2307L31.6541 40.4594L41.3724 50.4045L51.349 50.3858L42.8973 59.4859C42.5738 61.2121 42.2193 62.1161 41.1964 63.3977L102.58 62.9743L89.7503 63.0616L98.0582 49.8175L101.233 50.2925C102.681 50.8019 102.398 51.3986 102.679 52.8L102.679 59.7131L102.58 62.9743L102.141 102.535C100.569 105.226 99.2359 106.364 95.1917 107.028L24.8969 107.034C20.9819 106.415 19.8322 105.168 19.122 101.811L19.122 63.55Z" fill="#452626"/>
<path d="M43.9754 47.0088L28.6743 37.3671L36.4504 34.9245L51.8881 44.1473L43.9754 47.0088Z" fill="#452626"/>
<path d="M54.3805 28.8628L46.0099 31.5995L61.4476 40.8223L68.8867 37.9962L54.3805 28.8628Z" fill="#452626"/>
<path d="M73.2262 23.0505L64.8556 25.7872L78.3253 34.9299L86.9717 31.6095L73.2262 23.0505Z" fill="#452626"/>
<path d="M92.2086 16.8193L81.5967 20.3138L95.5863 29.2653L98.9544 28.2352C100.316 27.0948 100.751 26.3234 100.642 24.59L97.7028 18.3161C95.7762 16.981 94.4629 16.602 92.2086 16.8193Z" fill="#452626"/>
<path d="M88.3721 49.9816L80.3634 50.0803L70.6821 62.9503L79.1486 62.9763L88.3721 49.9816Z" fill="#452626"/>
<path d="M69.3344 50.2684L61.3257 50.3671L51.1865 63.1123L60.1109 63.2631L69.3344 50.2684Z" fill="#452626"/>
<path d="M18.9694 63.4698L18.9694 100.775C19.0635 104.963 20.2891 106.37 24.9046 106.956L93.0339 106.806C98.7973 107.003 100.662 105.787 101.747 101.421L102.413 62.8122M18.9694 63.4698L18.9698 42.5013C18.9697 40.8591 20.9481 40.2307 21.095 40.084M18.9694 63.4698L29.1778 63.3808L40.6364 63.2918M102.413 62.8122L102.413 59.504L102.413 52.8C102.536 50.8105 101.422 50.2861 100.171 49.8797L98.1783 49.8938M102.413 62.8122L78.9976 62.994M21.095 40.084L28.6417 37.2385M21.095 40.084L26.3553 40.0383L31.7173 40.3582L39.5814 48.4332M41.3962 50.2967C42.0394 53.6799 43.0431 58.9598 43.0431 58.9598M41.3962 50.2967C40.6875 49.569 39.5814 48.4332 39.5814 48.4332M41.3962 50.2967C45.2217 50.2696 51.1919 50.2272 51.1919 50.2272M43.0431 58.9598C42.4144 61.661 41.9075 62.679 40.6364 63.2918M43.0431 58.9598C46.2254 55.5495 48.0096 53.6375 51.1919 50.2272M40.6364 63.2918L50.6003 63.2145M39.5814 48.4332L43.9808 46.8936M81.4156 20.127L95.587 29.2653M95.587 29.2653L98.9735 27.6484C100.35 26.4197 100.828 25.6503 100.204 23.8763L97.5999 18.1471C95.6631 16.945 94.4387 16.6953 92.1233 16.6551L73.0023 22.8549M95.587 29.2653L87.473 32.1049M73.0023 22.8549L87.473 32.1049M73.0023 22.8549L64.5385 25.5992M87.473 32.1049L78.4292 34.9697M64.5385 25.5992L78.4292 34.9697M64.5385 25.5992L54.3355 28.9075M78.4292 34.9697L69.4538 38.1107M54.3355 28.9075L69.4538 38.1107M54.3355 28.9075L45.814 31.6705M69.4538 38.1107L61.9157 40.827M45.814 31.6705L61.9157 40.827M45.814 31.6705L36.2901 34.7586M61.9157 40.827L52.3836 44.1629M36.2901 34.7586L52.3836 44.1629M36.2901 34.7586L28.6417 37.2385M52.3836 44.1629L43.9808 46.8936M28.6417 37.2385L43.9808 46.8936M51.1919 50.2272L61.3197 50.1553M61.3197 50.1553L50.6003 63.2145M61.3197 50.1553L69.2891 50.0988M50.6003 63.2145L59.8625 63.1426M69.2891 50.0988L59.8625 63.1426M69.2891 50.0988L80.2471 50.0211M59.8625 63.1426L70.03 63.0636M80.2471 50.0211L70.03 63.0636M80.2471 50.0211L88.4479 49.9629M70.03 63.0636L78.9976 62.994M88.4479 49.9629L78.9976 62.994M88.4479 49.9629L98.1783 49.8938M98.1783 49.8938L89.4534 62.9325" stroke="#DACFBD"/>
<path d="M31.1498 54.3457C30.7082 55.6997 29.1184 56.5269 27.5451 56.0982C25.9718 55.6696 25.137 54.1819 25.5786 52.8279C26.0202 51.474 27.61 50.6468 29.1833 51.0754C30.7566 51.504 31.5914 52.9917 31.1498 54.3457Z" fill="#D9D9D9" stroke="#D9D9D9"/>
</svg>
