<svg width="93" height="124" viewBox="0 0 93 124" fill="none" xmlns="http://www.w3.org/2000/svg">
<path d="M74.8854 21.0645C75.2612 19.3395 74.6995 17.5442 73.4076 16.341C72.1156 15.1378 70.2848 14.7051 68.5909 15.2027L49.5564 20.7935L25.1295 15.1292C23.4621 14.7426 21.7129 15.2357 20.493 16.4362C19.273 17.6367 18.7519 19.3778 19.1117 21.0511L29.9025 71.2342L24.3054 70.8917C22.1701 70.761 20.1883 72.0033 19.3752 73.982C18.5621 75.9607 19.098 78.2374 20.7082 79.6458L43.7082 99.7635C45.6363 101.45 48.5273 101.406 50.4038 99.6626L72.0508 79.5449C73.5566 78.1455 74.0525 75.9671 73.3007 74.0538C72.5489 72.1405 70.7027 70.8824 68.6471 70.8824H64.0303L74.8854 21.0645Z" fill="#F6EFBB" stroke="url(#paint0_linear_131_194)" stroke-width="10" stroke-linejoin="round"/>
<g filter="url(#filter0_d_131_194)">
<circle cx="27.5" cy="15.5" r="3.5" fill="#FFF9C4"/>
<circle cx="35.5" cy="17.5" r="3.5" fill="#FFF9C4"/>
<circle cx="43.5" cy="20.5" r="3.5" fill="#FFF9C4"/>
<circle cx="19.5" cy="17.5" r="3.5" fill="#FFF9C4"/>
<circle cx="20.5" cy="25.5" r="3.5" fill="#FFF9C4"/>
<circle cx="23.5" cy="42.5" r="3.5" fill="#FFF9C4"/>
<circle cx="21.5" cy="34.5" r="3.5" fill="#FFF9C4"/>
<circle cx="25.5" cy="50.5" r="3.5" fill="#FFF9C4"/>
<circle cx="27.5" cy="59.5" r="3.5" fill="#FFF9C4"/>
<circle cx="29.5" cy="68.5" r="3.5" fill="#FFF9C4"/>
<circle cx="20.5" cy="71.5" r="3.5" fill="#FFF9C4"/>
<circle cx="21.5" cy="80.5" r="3.5" fill="#FFF9C4"/>
<circle cx="27.5" cy="86.5" r="3.5" fill="#FFF9C4"/>
<circle cx="33.5" cy="91.5" r="3.5" fill="#FFF9C4"/>
<circle cx="39.694" cy="96.694" r="3.5" transform="rotate(-3.27109 39.694 96.694)" fill="#FFF9C4"/>
<circle cx="45.694" cy="100.694" r="3.5" transform="rotate(-3.27109 45.694 100.694)" fill="#FFF9C4"/>
</g>
<g filter="url(#filter1_d_131_194)">
<circle cx="3.5" cy="3.5" r="3.5" transform="matrix(-1 0 0 1 69.3882 12)" fill="#FFF9C4"/>
<circle cx="3.5" cy="3.5" r="3.5" transform="matrix(-1 0 0 1 61.3882 14)" fill="#FFF9C4"/>
<circle cx="3.5" cy="3.5" r="3.5" transform="matrix(-1 0 0 1 53.3882 17)" fill="#FFF9C4"/>
<circle cx="3.5" cy="3.5" r="3.5" transform="matrix(-1 0 0 1 77.3882 14)" fill="#FFF9C4"/>
<circle cx="3.5" cy="3.5" r="3.5" transform="matrix(-1 0 0 1 76.3882 22)" fill="#FFF9C4"/>
<circle cx="3.5" cy="3.5" r="3.5" transform="matrix(-1 0 0 1 73.3882 39)" fill="#FFF9C4"/>
<circle cx="3.5" cy="3.5" r="3.5" transform="matrix(-1 0 0 1 75.3882 31)" fill="#FFF9C4"/>
<circle cx="3.5" cy="3.5" r="3.5" transform="matrix(-1 0 0 1 71.3882 47)" fill="#FFF9C4"/>
<circle cx="3.5" cy="3.5" r="3.5" transform="matrix(-1 0 0 1 69.3882 56)" fill="#FFF9C4"/>
<circle cx="3.5" cy="3.5" r="3.5" transform="matrix(-1 0 0 1 67.3882 65)" fill="#FFF9C4"/>
<circle cx="3.5" cy="3.5" r="3.5" transform="matrix(-1 0 0 1 76.3882 68)" fill="#FFF9C4"/>
<circle cx="3.5" cy="3.5" r="3.5" transform="matrix(-1 0 0 1 75.3882 77)" fill="#FFF9C4"/>
<circle cx="3.5" cy="3.5" r="3.5" transform="matrix(-1 0 0 1 69.3882 83)" fill="#FFF9C4"/>
<circle cx="3.5" cy="3.5" r="3.5" transform="matrix(-1 0 0 1 63.3882 88)" fill="#FFF9C4"/>
<circle cx="3.5" cy="3.5" r="3.5" transform="matrix(-0.998371 -0.0570602 -0.0570602 0.998371 57.3882 93.3994)" fill="#FFF9C4"/>
<circle cx="3.5" cy="3.5" r="3.5" transform="matrix(-0.998371 -0.0570602 -0.0570602 0.998371 51.3882 97.3994)" fill="#FFF9C4"/>
</g>
<defs>
<filter id="filter0_d_131_194" x="0.9" y="0.9" width="63.3943" height="122.394" filterUnits="userSpaceOnUse" color-interpolation-filters="sRGB">
<feFlood flood-opacity="0" result="BackgroundImageFix"/>
<feColorMatrix in="SourceAlpha" type="matrix" values="0 0 0 0 0 0 0 0 0 0 0 0 0 0 0 0 0 0 127 0" result="hardAlpha"/>
<feOffset dy="4"/>
<feGaussianBlur stdDeviation="7.55"/>
<feComposite in2="hardAlpha" operator="out"/>
<feColorMatrix type="matrix" values="0 0 0 0 0.960784 0 0 0 0 0.709804 0 0 0 0 0.329412 0 0 0 1 0"/>
<feBlend mode="normal" in2="BackgroundImageFix" result="effect1_dropShadow_131_194"/>
<feBlend mode="normal" in="SourceGraphic" in2="effect1_dropShadow_131_194" result="shape"/>
</filter>
<filter id="filter1_d_131_194" x="29.0938" y="0.9" width="63.3943" height="122.394" filterUnits="userSpaceOnUse" color-interpolation-filters="sRGB">
<feFlood flood-opacity="0" result="BackgroundImageFix"/>
<feColorMatrix in="SourceAlpha" type="matrix" values="0 0 0 0 0 0 0 0 0 0 0 0 0 0 0 0 0 0 127 0" result="hardAlpha"/>
<feOffset dy="4"/>
<feGaussianBlur stdDeviation="7.55"/>
<feComposite in2="hardAlpha" operator="out"/>
<feColorMatrix type="matrix" values="0 0 0 0 0.960784 0 0 0 0 0.709804 0 0 0 0 0.329412 0 0 0 1 0"/>
<feBlend mode="normal" in2="BackgroundImageFix" result="effect1_dropShadow_131_194"/>
<feBlend mode="normal" in="SourceGraphic" in2="effect1_dropShadow_131_194" result="shape"/>
</filter>
<linearGradient id="paint0_linear_131_194" x1="47" y1="20" x2="47" y2="96" gradientUnits="userSpaceOnUse">
<stop stop-color="#C0313A"/>
<stop offset="1" stop-color="#5A171B"/>
</linearGradient>
</defs>
</svg>
